<?xml version="1.0" encoding="iso-8859-1"?>
<!-- Generator: Adobe Illustrator 22.0.1, SVG Export Plug-In . SVG Version: 6.00 Build 0)  -->
<svg version="1.1" id="Icons" xmlns="http://www.w3.org/2000/svg" xmlns:xlink="http://www.w3.org/1999/xlink" x="0px" y="0px"
	 viewBox="0 0 512 512" style="enable-background:new 0 0 512 512;" xml:space="preserve">
<g>
	<path id="XMLID_53_" style="fill:#2C7294;" d="M512,255.879c0,70.692-28.654,134.692-74.981,181.019S326.692,511.879,256,511.879
		s-134.692-28.654-181.019-74.981S0,326.572,0,255.879S28.654,121.187,74.981,74.86S185.308-0.121,256-0.121
		S390.692,28.533,437.019,74.86S512,185.187,512,255.879z"/>
	<g id="XMLID_44_">
		<path id="XMLID_1114_" style="fill:#FDC2D1;" d="M512,255.929c0,3.24-0.06,6.465-0.18,9.675c-0.12,3.21-0.3,6.405-0.54,9.585
			c-0.505,6.83-1.28,13.585-2.314,20.254c-1.034,6.669-2.326,13.251-3.866,19.736c-13.365,56.41-45.395,105.598-89.206,140.683
			S316.49,511.929,256,511.929c-66.845,0-127.707-25.623-173.302-67.581S6.775,344.094,1,278.749v-14.215v-14.215h255.47h255.47
			c0.02,0.935,0.035,1.87,0.045,2.805S512,254.994,512,255.929z"/>
		<g id="XMLID_48_">
			<path id="XMLID_49_" style="fill:#FB80A5;" d="M88.189,250.319c2.996,4.031,6.053,7.735,9.06,11.191s5.967,6.665,8.769,9.703
				c6.905,7.485,12.029,13.203,15.56,19.035s5.47,11.778,6.005,19.719l0.053,0.783l0.053,0.783l0.134,0.774l0.134,0.774
				c0.535,3.081,3.231,18.333,7.242,36.268s9.336,38.551,15.13,52.362c5.021,11.968,13.109,21.668,23.177,28.377
				s22.116,10.426,35.055,10.426c6.802,0,13.562-1.093,19.972-3.179s12.469-5.164,17.868-9.133
				c4.648-3.417,8.729-7.389,12.192-11.838s6.308-9.373,8.482-14.697c2.174,5.322,5.019,10.246,8.482,14.695
				s7.545,8.421,12.194,11.839c5.399,3.97,11.458,7.048,17.868,9.134s13.17,3.179,19.971,3.179c0.001,0,0.001,0,0.001,0s0,0,0.001,0
				c12.938,0,24.986-3.717,35.054-10.426s18.157-16.41,23.177-28.377c5.793-13.811,11.119-34.427,15.13-52.362
				s6.707-33.186,7.242-36.268l0.134-0.774l0.134-0.774l0.053-0.783l0.053-0.783c0.535-7.941,2.473-13.887,6.005-19.719
				s8.655-11.55,15.56-19.036c2.802-3.038,5.762-6.246,8.769-9.702s6.064-7.16,9.06-11.191H267.076H88.189z"/>
		</g>
		<path id="XMLID_47_" style="fill:#D0F4FA;" d="M441.825,124.129c-4.354-13.3-11.684-24.738-21.018-33.893
			s-20.672-16.03-33.043-20.202c-8.57-2.89-17.634-4.485-26.872-4.643s-18.649,1.122-27.912,3.981
			c-6.266,1.934-12.589,3.588-18.952,4.963c-6.364,1.375-12.769,2.472-19.197,3.292c-4.609,0.588-9.23,1.032-13.858,1.334
			s-9.262,0.459-13.896,0.475c-4.634-0.015-9.268-0.173-13.896-0.475s-9.249-0.746-13.858-1.334
			c-6.429-0.82-12.834-1.917-19.197-3.292s-12.687-3.029-18.952-4.963c-9.263-2.859-18.674-4.139-27.912-3.981
			s-18.303,1.752-26.872,4.643c-12.371,4.172-23.709,11.046-33.043,20.202s-16.664,20.593-21.018,33.893
			c-1.462,4.465-2.588,9.083-3.349,13.822s-1.156,9.601-1.156,14.555v0v0c0,7.409,0.885,16.09,2.554,25.163
			c1.669,9.073,4.123,18.539,7.261,27.517c8.061,23.059,22.209,36.564,34.753,50.397s23.483,27.995,25.124,52.367
			c0,0,2.467,14.216,6.261,31.594c3.794,17.378,8.913,37.916,14.218,50.561c6.22,14.828,20.108,21.37,33.373,20.295
			s25.909-9.767,29.641-25.407c0.033-0.137,0.065-0.274,0.097-0.41c0.032-0.136,0.063-0.272,0.093-0.408
			c0.557-2.477,0.996-5.015,1.312-7.604c0.316-2.589,0.508-5.229,0.573-7.912l2.089-35.304l2.089-35.304
			c0.446-5.396,2.769-10.218,6.297-13.843c3.527-3.625,8.259-6.054,13.518-6.666c5.26,0.612,9.991,3.041,13.518,6.666
			c3.527,3.625,5.851,8.447,6.297,13.843l2.089,35.304l2.089,35.304c0.065,2.683,0.258,5.323,0.573,7.912
			c0.316,2.589,0.755,5.127,1.312,7.604c0.031,0.136,0.062,0.272,0.093,0.408c0.032,0.136,0.064,0.273,0.097,0.41
			c3.732,15.64,16.375,24.332,29.641,25.407c13.265,1.075,27.153-5.467,33.373-20.295c5.304-12.644,10.424-33.183,14.218-50.561
			c3.794-17.378,6.261-31.594,6.261-31.594c1.642-24.372,12.581-38.534,25.124-52.367c12.544-13.833,26.692-27.338,34.753-50.397
			c3.138-8.978,5.592-18.443,7.261-27.517c1.669-9.073,2.554-17.755,2.554-25.163v0v0c0-4.954-0.395-9.815-1.156-14.555
			S443.287,128.595,441.825,124.129z"/>
		<g id="XMLID_45_">
			<path id="XMLID_46_" style="fill:#BEDAF7;" d="M213.346,390.105c-5.304-12.644-10.424-33.183-14.218-50.561
				s-6.261-31.594-6.261-31.594c-1.642-24.372-12.581-38.534-25.124-52.367s-26.692-27.338-34.753-50.397
				c-3.138-8.978-5.592-18.443-7.261-27.517c-1.669-9.073-2.554-17.755-2.554-25.163v0v0c0-4.954,0.395-9.815,1.156-14.555
				s1.887-9.357,3.349-13.822c4.354-13.3,11.684-24.738,21.018-33.893s20.672-16.03,33.043-20.202
				c1.749-0.59,3.519-1.126,5.307-1.607s3.593-0.906,5.414-1.276c-7.868-1.592-15.771-2.091-23.514-1.582
				s-15.327,2.025-22.559,4.464c-12.371,4.172-23.709,11.046-33.043,20.202s-16.664,20.593-21.018,33.893
				c-1.462,4.465-2.588,9.083-3.349,13.822s-1.156,9.601-1.156,14.555v0v0c0,7.409,0.885,16.09,2.554,25.163
				c1.669,9.073,4.123,18.539,7.261,27.517c8.061,23.059,22.209,36.564,34.753,50.397s23.483,27.995,25.124,52.367
				c0,0,2.467,14.216,6.261,31.594s8.913,37.916,14.218,50.561c4.342,10.35,12.419,16.663,21.413,19.166
				c8.994,2.503,18.905,1.197,26.913-3.691c-2.721-1.689-5.235-3.817-7.433-6.394S214.806,393.586,213.346,390.105z"/>
		</g>
		<path id="XMLID_1037_" style="fill:#FFFFFF;" d="M420.83,92.508c0-3.118-3.167-5.997-8.522-8.323s-12.898-4.099-21.65-5.005
			c-0.906-8.751-2.679-16.295-5.005-21.65c-2.326-5.355-5.205-8.522-8.323-8.522s-5.997,3.167-8.323,8.522
			c-2.326,5.355-4.099,12.898-5.005,21.65c-8.751,0.906-16.295,2.679-21.65,5.005c-5.355,2.326-8.522,5.205-8.522,8.323
			s3.167,5.997,8.522,8.323c5.355,2.326,12.898,4.099,21.65,5.005c0.906,8.751,2.679,16.294,5.005,21.65
			c2.326,5.355,5.205,8.522,8.323,8.522s5.997-3.167,8.323-8.522c2.326-5.355,4.099-12.898,5.005-21.65
			c8.751-0.906,16.295-2.679,21.65-5.005S420.83,95.625,420.83,92.508z"/>
		<g id="XMLID_1002_">
			<polygon id="XMLID_1036_" style="fill:#5D77D6;" points="444.12,167.804 474.95,204.594 505.78,241.384 492.367,252.624 
				478.954,263.864 448.124,227.074 417.294,190.284 430.707,179.044 			"/>
			<path id="XMLID_1032_" style="fill:#465FB8;" d="M453.48,178.969l-3.695-4.405l-3.695-4.405c-0.22,0.295-0.445,0.588-0.671,0.878
				c-0.226,0.29-0.454,0.577-0.679,0.862c-1.59,1.97-3.285,3.875-5.085,5.71s-3.705,3.6-5.715,5.29
				c-2.31,1.935-4.695,3.71-7.144,5.331c-2.449,1.621-4.961,3.089-7.526,4.409l3.69,4.405l3.69,4.405l3.955,4.72l3.955,4.72
				l1.5,1.79l1.5,1.79c2.49-1.46,4.932-3.035,7.324-4.724c2.391-1.689,4.731-3.491,7.016-5.406c2.285-1.915,4.47-3.905,6.552-5.965
				c2.082-2.06,4.062-4.19,5.938-6.385l-5.455-6.51L453.48,178.969z"/>
			<path id="XMLID_1027_" style="fill:#4F66CE;" d="M454.23,41.029c-15.385-18.365-35.645-30.24-57.306-35.32
				s-44.724-3.365-65.714,5.45c-4.815,2.02-9.522,4.413-14.079,7.183c-4.556,2.77-8.961,5.917-13.171,9.447
				c-8.37,7.015-15.392,15.043-21.037,23.754s-9.912,18.106-12.772,27.856c-4.86,16.54-5.67,34.103-2.289,51.081
				c3.381,16.979,10.954,33.374,22.859,47.579c17.005,20.295,39.953,32.665,64.165,36.7c24.212,4.035,49.69-0.265,71.755-13.31
				c0,0.005,0.003,0.005,0.005,0.004c0.003-0.001,0.005-0.004,0.005-0.004c2.425-1.43,4.81-2.968,7.147-4.613
				c2.337-1.645,4.627-3.397,6.862-5.257c0.055-0.045,0.11-0.09,0.165-0.135c0.055-0.045,0.11-0.09,0.165-0.135
				c2.285-1.915,4.47-3.905,6.553-5.964c2.082-2.059,4.062-4.186,5.937-6.376c6.41-7.46,11.643-15.642,15.67-24.281
				s6.85-17.734,8.44-27.019c2.565-14.915,1.965-30.323-1.896-45.128S464.71,53.534,454.23,41.029z M445.37,139.229
				c-2.335,5.76-5.373,11.285-9.101,16.438c-3.729,5.152-8.149,9.932-13.249,14.202c-16.655,13.96-37.393,19.847-57.456,18.08
				c-20.064-1.768-39.454-11.19-53.414-27.85c-10.07-12.02-15.938-26.167-17.759-40.652c-1.821-14.485,0.404-29.307,6.519-42.677
				c2.355-5.16,5.29-10.103,8.795-14.726s7.58-8.929,12.215-12.814c8.2-6.875,17.39-11.79,27.003-14.799s19.647-4.111,29.537-3.361
				c10.195,0.78,20.235,3.533,29.498,8.205s17.748,11.265,24.833,19.725c3.465,4.13,6.43,8.51,8.904,13.069
				s4.456,9.296,5.956,14.141c2.705,8.715,3.842,17.773,3.45,26.75S448.785,130.834,445.37,139.229z"/>
			<path id="XMLID_1006_" style="fill:#4A61B5;" d="M457.3,97.749c-1.065-7.7-3.185-15.303-6.379-22.579
				c-3.194-7.276-7.461-14.226-12.821-20.621c-9.32-11.125-20.868-19.285-33.445-24.373c-12.578-5.088-26.185-7.103-39.625-5.937
				c-8.455,0.73-16.845,2.718-24.871,5.989c-8.026,3.271-15.689,7.826-22.689,13.691c-5.635,4.72-10.51,10.012-14.61,15.721
				c-4.1,5.709-7.425,11.834-9.96,18.219c-5.62,14.15-7.368,29.577-5.094,44.59c2.274,15.012,8.569,29.61,19.034,42.1
				c15.19,18.125,36.287,28.378,58.119,30.301s44.396-4.481,62.521-19.671c3.865-3.235,7.372-6.74,10.516-10.465
				c3.144-3.725,5.924-7.67,8.334-11.785c4.915-8.365,8.312-17.427,10.154-26.765S458.61,107.214,457.3,97.749z M445.37,139.229
				c-2.335,5.76-5.373,11.285-9.101,16.438c-3.729,5.152-8.149,9.932-13.249,14.202c-16.655,13.96-37.393,19.847-57.456,18.08
				c-20.064-1.768-39.454-11.19-53.414-27.85c-10.07-12.02-15.938-26.167-17.759-40.652c-1.821-14.485,0.404-29.307,6.519-42.677
				c2.355-5.16,5.29-10.103,8.795-14.726s7.58-8.929,12.215-12.814c8.2-6.875,17.39-11.79,27.003-14.799s19.647-4.111,29.537-3.361
				c10.195,0.78,20.235,3.533,29.498,8.205s17.748,11.265,24.833,19.725c3.465,4.13,6.43,8.51,8.904,13.069
				s4.456,9.296,5.956,14.141c2.705,8.715,3.842,17.773,3.45,26.75S448.785,130.834,445.37,139.229z"/>
			<path id="XMLID_1108_" style="fill:#DB6307;" d="M512,255.929c0,3.24-0.06,6.465-0.18,9.675c-0.12,3.21-0.3,6.405-0.54,9.585
				c-0.505,6.83-1.28,13.585-2.314,20.254c-1.034,6.669-2.326,13.251-3.866,19.736l-13.275-15.84l-13.275-15.84
				c-2.615-3.12-3.723-7.003-3.4-10.763c0.322-3.76,2.075-7.398,5.18-10.028c0.01-0.01,0.02-0.017,0.03-0.025
				c0.01-0.007,0.02-0.015,0.03-0.025l7.36-6.17l7.36-6.17l4.295-3.595l4.295-3.595l0.325-0.275l0.325-0.275
				c1.055-0.885,2.2-1.598,3.399-2.141c1.199-0.544,2.451-0.919,3.721-1.129c0.115,1.825,0.212,3.655,0.291,5.49
				c0.079,1.835,0.139,3.675,0.179,5.52c0.02,0.935,0.035,1.87,0.045,2.805S512,254.994,512,255.929z"/>
			<path id="XMLID_1105_" style="fill:#FC7701;" d="M512,255.929c0,3.24-0.06,6.465-0.18,9.675c-0.12,3.21-0.3,6.405-0.54,9.585
				l-4.705-5.615l-4.705-5.615c-1.65-1.965-2.7-4.232-3.171-6.58c-0.471-2.347-0.364-4.775,0.301-7.06
				c0.395-1.36,0.988-2.67,1.773-3.884c0.785-1.214,1.762-2.331,2.927-3.306l0.325-0.275l0.325-0.275
				c1.055-0.885,2.2-1.598,3.399-2.141c1.199-0.544,2.451-0.919,3.721-1.129c0.115,1.825,0.212,3.655,0.291,5.49
				c0.079,1.835,0.139,3.675,0.179,5.52c0.02,0.935,0.035,1.87,0.045,2.805S512,254.994,512,255.929z"/>
		</g>
	</g>
</g>
</svg>
