<svg xmlns="http://www.w3.org/2000/svg" viewBox="0 0 512 512"><defs><style>.cls-1{fill:#1fb7a2;}.cls-2{fill:#39eac8;}.cls-3{fill:#fff;}.cls-4{fill:#afafaf;}.cls-5{fill:#eb3c65;}.cls-6{fill:#c13459;}.cls-7{fill:#cecece;}.cls-8{fill:#3e4fc7;}.cls-9{fill:#7e92f2;}.cls-10{fill:#ffca57;}.cls-11{fill:#ffdf9f;}.cls-12{fill:#3342ae;}</style></defs><title>Dental Care</title><g id="BULINE"><circle class="cls-1" cx="256" cy="256" r="256"/></g><g id="Icons"><circle class="cls-2" cx="238.97" cy="236.59" r="173.25"/><rect class="cls-3" x="393.04" y="180.59" width="25" height="172.79"/><rect class="cls-3" x="323.12" y="13.99" width="25" height="172.79" transform="translate(27.32 266.72) rotate(-45)"/><rect class="cls-4" x="244.42" y="318.97" width="22.6" height="35.52"/><path class="cls-5" d="M121.53,199.18s5.22-4,14.85-5a40.52,40.52,0,0,1,35.26,14.86l42.49,51.72a18.91,18.91,0,0,0,14.6,6.91H336.36a65.33,65.33,0,0,1,31.22,7.93l89,48.33a36.48,36.48,0,0,1,15.65,47.49H459.52L340.27,316.75l-141.66-4.84L115.67,204.15Z"/><path class="cls-6" d="M472.25,370.76H459.52L340.27,316.05l-141.66-4.84L115.67,203.45l5.86-5a26.84,26.84,0,0,1,8.41-3.75l51,66.22a61.6,61.6,0,0,0,46.74,24l94.57,3.23a90.17,90.17,0,0,1,34.48,8.15l96.77,44.4a30.61,30.61,0,0,0,12.74,2.78h6.05c.28-.59.53-1.18.77-1.79A36.31,36.31,0,0,1,472.25,370.76Z"/><path class="cls-5" d="M86.11,94.57h22.24a21.34,21.34,0,0,1,21.34,21.34v36.91a43.59,43.59,0,0,1-43.59,43.59h0a0,0,0,0,1,0,0V94.57A0,0,0,0,1,86.11,94.57Z" transform="translate(-66.19 95.48) rotate(-37.41)"/><path class="cls-6" d="M134.8,182.48a43.52,43.52,0,0,1-13.26,16.7L59.66,118.29l17.67-13.53a21.33,21.33,0,0,1,26,0h0a22.19,22.19,0,0,0-4.14,31.09Z"/><path class="cls-3" d="M441.22,382.91l-98.29-49.69A57.4,57.4,0,0,0,317,327H206.62a32.17,32.17,0,0,1-25.42-12.45L54.53,151.28a22.54,22.54,0,0,1,4-31.61l1.33-1,133.2,171.74a32.2,32.2,0,0,0,25.43,12.45H322.81a57.27,57.27,0,0,1,25.9,6.18l123.54,62.46-.76,1.5A22.52,22.52,0,0,1,441.22,382.91Z"/><path class="cls-7" d="M472.25,371.47l-.76,1.5a22.53,22.53,0,0,1-30.27,9.94l-98.29-49.69a57.39,57.39,0,0,0-25.9-6.17H206.62a32.18,32.18,0,0,1-25.42-12.46L54.53,151.28A22.51,22.51,0,0,1,51,130.22a22.51,22.51,0,0,0,3.53,6.54L181.2,300.06a32.18,32.18,0,0,0,25.42,12.46H317a57.39,57.39,0,0,1,25.9,6.17l98.29,49.69a22.5,22.5,0,0,0,22.48-1.23Z"/><path class="cls-3" d="M229.88,354.49h51.66a10.69,10.69,0,0,1,10.69,10.69v41a0,0,0,0,1,0,0h-73a0,0,0,0,1,0,0v-41A10.69,10.69,0,0,1,229.88,354.49Z"/><path class="cls-7" d="M292.24,388.39v17.75H219.19v-41a10.7,10.7,0,0,1,10.69-10.69h14.33v.1a33.8,33.8,0,0,0,33.8,33.8Z"/><path class="cls-7" d="M204.46,406.15H307a24.21,24.21,0,0,1,24.21,24.21v6.46a0,0,0,0,1,0,0H180.25a0,0,0,0,1,0,0v-6.46A24.21,24.21,0,0,1,204.46,406.15Z"/><path class="cls-4" d="M326.73,416.37h-94a24.24,24.24,0,0,0-23.93,20.45H180.25v-6.46a24.21,24.21,0,0,1,24.21-24.22H307A24.17,24.17,0,0,1,326.73,416.37Z"/><rect class="cls-3" x="160.07" y="436.82" width="191.3" height="24.21" rx="12.11"/><rect class="cls-7" x="227.16" y="228.37" width="23.61" height="39.35"/><rect class="cls-4" x="227.16" y="228.37" width="23.61" height="13.92"/><path class="cls-3" d="M211,207.18h92.62a0,0,0,0,1,0,0v8a13.17,13.17,0,0,1-13.17,13.17H224.19A13.17,13.17,0,0,1,211,215.2v-8A0,0,0,0,1,211,207.18Z"/><path class="cls-5" d="M224.19,189.62h66.29a13.17,13.17,0,0,1,13.17,13.17v4.39a0,0,0,0,1,0,0H211a0,0,0,0,1,0,0v-4.39A13.17,13.17,0,0,1,224.19,189.62Z"/><circle class="cls-8" cx="399.54" cy="170.31" r="25.5"/><circle class="cls-9" cx="399.54" cy="170.31" r="16.17"/><path class="cls-7" d="M217.25,27.88h60.49a43,43,0,0,1,43,43v0a0,0,0,0,1,0,0H174.25a0,0,0,0,1,0,0v0a43,43,0,0,1,43-43Z"/><path class="cls-4" d="M320.54,70.88H174.05A43,43,0,0,1,210,28.46l-.22.23c-10.27,11.13-2.16,29.19,13,29.19h95.8A43,43,0,0,1,320.54,70.88Z"/><path class="cls-10" d="M180.35,80.47c0,7.12,9.16,12.9,20.46,12.9s20.46-5.78,20.46-12.9Z"/><path class="cls-10" d="M226.21,80.47c0,7.12,9.16,12.9,20.46,12.9s20.46-5.78,20.46-12.9Z"/><path class="cls-10" d="M273.31,80.47c0,7.12,9.16,12.9,20.46,12.9s20.46-5.78,20.46-12.9Z"/><rect class="cls-9" x="168.04" y="70.88" width="158.5" height="10.5" rx="5.25"/><rect class="cls-11" x="238.97" y="108.09" width="11.8" height="50" rx="5.9"/><rect class="cls-11" x="295.6" y="100.36" width="11.8" height="50" rx="5.9" transform="translate(-0.34 249.91) rotate(-45)"/><rect class="cls-11" x="187.55" y="100.36" width="11.8" height="50" rx="5.9" transform="translate(241.6 350.8) rotate(-135)"/><path class="cls-12" d="M409.31,461a256.05,256.05,0,0,1-306.62,0Z"/></g></svg>