<svg xmlns="http://www.w3.org/2000/svg" viewBox="0 0 48 48"><title>11-Dentist</title><g id="_11-Dentist" data-name="11-Dentist"><polygon points="36 47 24 47 24 38 29 33 29 29.57 41 33 41 47 36 47" style="fill:#06ccab"/><path d="M32,12a3,3,0,0,1,0,6Z" style="fill:#ffbeaa"/><path d="M33,7v5H28.59A5.106,5.106,0,0,0,29,10a4.941,4.941,0,0,0-1-3h5Z" style="fill:#06ccab"/><path d="M32.49,7H28a5,5,0,0,0-8,0H15.51A9.007,9.007,0,0,1,32.49,7Z" style="fill:#7e8596"/><path d="M32,12v6a8.262,8.262,0,0,1-.06,1H16.06A8.262,8.262,0,0,1,16,18V12h3.41a5.011,5.011,0,0,0,9.18,0Z" style="fill:#ffdecf"/><path d="M20,15a4.965,4.965,0,0,0,2-.427A5.064,5.064,0,0,1,19.41,12H16v.981A5,5,0,0,0,20,15Z" style="fill:#faa68e"/><path d="M28.59,12a5.05,5.05,0,0,1-.59.981V18a8.262,8.262,0,0,1-.06,1h4A8.262,8.262,0,0,0,32,18V12Z" style="fill:#faa68e"/><path d="M27,25.42A8,8,0,0,1,16.06,19H31.94A8.021,8.021,0,0,1,27,25.42Z" style="fill:#06ccab"/><path d="M27.94,19A8.021,8.021,0,0,1,23,25.42a8.251,8.251,0,0,1-1,.318A8,8,0,0,0,24,26a7.99,7.99,0,0,0,7.94-7Z" style="fill:#64e1dc"/><polygon points="29 29.57 29 33 24 38 19 33 19 29.57 21 29 23 31 25 31 27 29 29 29.57" style="fill:#f2f6fc"/><polygon points="19 30 19 33 24 38 29 33 29 30 24 35 19 30" style="fill:#cdd2e1"/><path d="M19.41,12A5.106,5.106,0,0,1,19,10a4.941,4.941,0,0,1,1-3,5,5,0,0,1,8,0,4.941,4.941,0,0,1,1,3,5.106,5.106,0,0,1-.41,2,5.011,5.011,0,0,1-9.18,0ZM26,10a2,2,0,1,0-2,2A2.006,2.006,0,0,0,26,10Z" style="fill:#19cffc"/><path d="M27,25.42V29l-2,2H23l-2-2V25.42a8.049,8.049,0,0,0,6,0Z" style="fill:#ffbeaa"/><circle cx="24" cy="10" r="2" style="fill:#1ea1e3"/><polygon points="12 47 7 47 7 33 19 29.57 19 33 24 38 24 47 12 47" style="fill:#06ccab"/><polygon points="29 29.57 29 33 24 38 19 33 19 29.57 7 33 7 37 19 33.57 19 37 24 42 29 37 29 33.57 41 37 41 33 29 29.57" style="fill:#64e1dc"/><path d="M15.51,7H20a4.941,4.941,0,0,0-1,3,5.106,5.106,0,0,0,.41,2H15V7Z" style="fill:#06ccab"/><path d="M16,12v6a3,3,0,0,1,0-6Z" style="fill:#ffbeaa"/><path d="M24,7a3,3,0,1,0,3,3A3,3,0,0,0,24,7Zm0,4a1,1,0,1,1,1-1A1,1,0,0,1,24,11Z"/><path d="M41.274,32.039,28,28.245v-2.2a9.013,9.013,0,0,0,4.934-6.922c.009-.082.007-.166.014-.247A3.976,3.976,0,0,0,34,11.556V7a.985.985,0,0,0-.819-.963,10,10,0,0,0-18.362,0A.985.985,0,0,0,14,7v4.556a3.976,3.976,0,0,0,1.052,7.318c.008.084.005.168.015.252A8.93,8.93,0,0,0,20,26.054v2.191L6.726,32.039A1,1,0,0,0,6,33V47a1,1,0,0,0,1,1H41a1,1,0,0,0,1-1V33A1,1,0,0,0,41.274,32.039ZM22,26.766a8.664,8.664,0,0,0,4,0v1.82L24.586,30H23.414L22,28.586ZM17,18V13h1.813a5.984,5.984,0,0,0,10.374,0H31v5Zm10.673-6.4a4.012,4.012,0,0,1-7.343.006A4.081,4.081,0,0,1,20,10a3.931,3.931,0,0,1,.8-2.4,4,4,0,0,1,6.4,0A3.927,3.927,0,0,1,28,10,4.091,4.091,0,0,1,27.673,11.6ZM33,16.722V13.278a1.983,1.983,0,0,1,0,3.444ZM29.91,11A6.075,6.075,0,0,0,30,10a6.009,6.009,0,0,0-.345-2H32v3ZM24,2a8.013,8.013,0,0,1,6.915,4H28.46a5.974,5.974,0,0,0-8.921,0H17.085A8.013,8.013,0,0,1,24,2ZM16,8h2.346A5.985,5.985,0,0,0,18,10a6.075,6.075,0,0,0,.09,1H16Zm-2,7a1.993,1.993,0,0,1,1-1.722v3.444A1.993,1.993,0,0,1,14,15Zm3.292,5H30.7a7.013,7.013,0,0,1-4.069,4.491A6.992,6.992,0,0,1,17.292,20Zm3.417,10.123,1.584,1.584A1,1,0,0,0,23,32h2a1,1,0,0,0,.707-.293l1.584-1.584.709.2v2.26l-4,4-4-4v-2.26ZM8,33.754,18,30.9V33a1,1,0,0,0,.293.707L23,38.414V46H13V39H11v7H8ZM40,46H37V39H35v7H25V38.414l4.707-4.707A1,1,0,0,0,30,33V30.9l10,2.857Z"/><rect x="28" y="39" width="5" height="2"/></g></svg>